<svg width="42.000000" height="42.000000" viewBox="0 0 42 42" fill="none" xmlns="http://www.w3.org/2000/svg" xmlns:xlink="http://www.w3.org/1999/xlink">
	<desc>
			Created with Pixso.
	</desc>
	<defs>
		<clipPath id="clip108_4408">
			<rect id="Auto-repair" width="42.000000" height="42.000000" fill="white" fill-opacity="0"/>
		</clipPath>
	</defs>
	<rect id="Auto-repair" width="42.000000" height="42.000000" fill="#FFFFFF" fill-opacity="0"/>
	<g clip-path="url(#clip108_4408)">
		<path id="Vector" d="M15.01 33.34C10.3 31.06 7.26 26.2 7.26 20.97C7.26 16.35 9.56 12.06 13.43 9.51C13.91 9.18 14.05 8.53 13.73 8.04C13.4 7.55 12.75 7.42 12.26 7.74C12.04 7.89 11.83 8.04 11.62 8.19L9.53 6.43C8.32 5.42 6.52 5.58 5.5 6.79L4.31 8.21C3.82 8.79 3.59 9.53 3.66 10.29C3.72 11.05 4.08 11.74 4.67 12.23L6.76 13.99C6.26 15.01 5.86 16.09 5.59 17.21L2.85 17.21C1.28 17.21 0 18.49 0 20.07L0 21.92C0 23.5 1.28 24.78 2.85 24.78L5.6 24.78C5.88 25.89 6.27 26.96 6.78 27.99L4.67 29.76C4.08 30.25 3.72 30.94 3.66 31.7C3.59 32.46 3.82 33.2 4.31 33.78L5.5 35.2C6.07 35.88 6.88 36.22 7.69 36.22C8.34 36.22 8.99 36 9.53 35.55L11.65 33.78C12.41 34.34 13.23 34.83 14.09 35.25C14.61 35.5 15.25 35.28 15.5 34.75C15.75 34.23 15.54 33.6 15.01 33.34ZM2.85 22.66C2.44 22.66 2.11 22.33 2.11 21.92L2.11 20.07C2.11 19.66 2.44 19.33 2.85 19.33L5.23 19.33C5.17 19.87 5.14 20.42 5.14 20.97C5.14 21.54 5.17 22.1 5.23 22.66L2.85 22.66ZM6.03 10.61C5.88 10.48 5.78 10.31 5.77 10.11C5.75 9.91 5.81 9.72 5.93 9.57L7.12 8.15C7.27 7.97 7.48 7.88 7.69 7.88C7.86 7.88 8.03 7.94 8.17 8.06L9.98 9.57C9.17 10.35 8.45 11.21 7.83 12.13L6.03 10.61ZM8.17 33.93C7.86 34.2 7.39 34.16 7.12 33.84L5.93 32.42C5.81 32.27 5.75 32.08 5.77 31.88C5.78 31.68 5.88 31.51 6.03 31.38L7.85 29.84C8.48 30.77 9.2 31.63 10 32.4L8.17 33.93ZM39.14 17.21L36.4 17.21C36.13 16.09 35.74 15.01 35.23 13.99L37.32 12.23C38.53 11.22 38.69 9.41 37.68 8.21L36.49 6.79C35.47 5.58 33.67 5.42 32.46 6.43L30.37 8.19C30.1 7.99 29.81 7.79 29.52 7.61C29.03 7.29 28.37 7.43 28.06 7.93C27.74 8.42 27.89 9.07 28.38 9.39C32.36 11.93 34.73 16.26 34.73 20.97C34.73 26.31 31.6 31.21 26.76 33.45C26.23 33.69 26 34.32 26.24 34.85C26.49 35.38 27.12 35.61 27.65 35.37C28.61 34.92 29.51 34.39 30.34 33.78L32.46 35.55C32.98 35.99 33.62 36.22 34.29 36.22C34.38 36.22 34.46 36.22 34.55 36.21C35.31 36.14 36 35.79 36.49 35.2L37.68 33.78C38.69 32.58 38.53 30.77 37.32 29.76L35.21 27.98C35.71 26.96 36.1 25.89 36.38 24.78L39.14 24.78C40.71 24.78 42 23.5 42 21.92L42 20.07C42 18.49 40.71 17.21 39.14 17.21ZM35.96 31.38C36.28 31.64 36.32 32.11 36.06 32.42L34.87 33.84C34.74 33.99 34.56 34.08 34.36 34.1C34.16 34.12 33.97 34.06 33.82 33.93L31.98 32.39C32.79 31.62 33.51 30.76 34.13 29.84L35.96 31.38ZM34.16 12.12C33.54 11.21 32.82 10.35 32.02 9.57L33.82 8.06C34.13 7.79 34.6 7.83 34.87 8.15L36.06 9.57C36.32 9.88 36.28 10.35 35.96 10.61L34.16 12.12ZM39.88 21.92C39.88 22.33 39.55 22.66 39.14 22.66L36.76 22.66C36.82 22.1 36.85 21.54 36.85 20.97C36.85 20.42 36.82 19.87 36.76 19.33L39.14 19.33C39.55 19.33 39.88 19.66 39.88 20.07L39.88 21.92L39.88 21.92ZM28.12 20.97C28.12 18.49 26.86 16.23 24.75 14.92C24.25 14.61 24.1 13.96 24.41 13.46C24.72 12.97 25.37 12.81 25.87 13.12C28.6 14.82 30.23 17.76 30.23 20.97C30.23 23.16 29.46 25.28 28.04 26.95C27.83 27.19 27.54 27.32 27.24 27.32C26.99 27.32 26.75 27.24 26.55 27.07C26.11 26.69 26.05 26.02 26.43 25.58C27.52 24.29 28.12 22.66 28.12 20.97ZM15.68 25.71C16.07 26.15 16.03 26.82 15.6 27.21C15.39 27.39 15.14 27.48 14.89 27.48C14.6 27.48 14.31 27.36 14.1 27.12C12.59 25.43 11.76 23.25 11.76 20.97C11.76 17.55 13.63 14.43 16.65 12.82C17.17 12.54 17.81 12.74 18.08 13.25C18.36 13.77 18.16 14.41 17.65 14.68C15.32 15.93 13.87 18.34 13.87 20.97C13.87 22.73 14.51 24.41 15.68 25.71ZM22.04 24.38C22.05 24.32 22.05 24.25 22.05 24.19L22.05 11.08L25.89 8.87C26.22 8.68 26.42 8.33 26.42 7.95L26.42 2.91C26.42 2.53 26.22 2.18 25.89 1.99L23.71 0.73C23.2 0.44 22.56 0.61 22.26 1.12C21.97 1.62 22.14 2.27 22.65 2.56L24.31 3.52L24.31 7.34L21 9.25L17.68 7.34L17.68 3.52L19.34 2.56C19.85 2.27 20.02 1.62 19.73 1.12C19.44 0.61 18.79 0.44 18.28 0.73L16.1 1.99C15.77 2.18 15.57 2.53 15.57 2.91L15.57 7.95C15.57 8.33 15.77 8.68 16.1 8.87L19.94 11.08L19.94 24.19C19.94 24.25 19.94 24.32 19.95 24.38C18.52 24.83 17.48 26.16 17.48 27.74L17.48 38.95C17.48 40.31 18.58 41.4 19.93 41.4L22.06 41.4C23.41 41.4 24.51 40.31 24.51 38.95L24.51 27.74C24.51 26.16 23.47 24.83 22.04 24.38ZM22.39 38.95C22.39 39.13 22.24 39.29 22.06 39.29L19.93 39.29C19.75 39.29 19.6 39.13 19.6 38.95L19.6 27.74C19.6 26.97 20.22 26.34 21 26.34C21.77 26.34 22.39 26.97 22.39 27.74L22.39 38.95L22.39 38.95Z" fill="#FFFFFF" fill-opacity="1.000000" fill-rule="nonzero"/>
	</g>
</svg>
