<svg width="34.000000" height="34.000000" viewBox="0 0 34 34" fill="none" xmlns="http://www.w3.org/2000/svg" xmlns:xlink="http://www.w3.org/1999/xlink">
	<desc>
			Created with Pixso.
	</desc>
	<defs>
		<clipPath id="clip108_4397">
			<rect id="Сar-chassis" width="34.000000" height="34.000000" fill="white" fill-opacity="0"/>
		</clipPath>
	</defs>
	<rect id="Сar-chassis" width="34.000000" height="34.000000" fill="#FFFFFF" fill-opacity="0"/>
	<g clip-path="url(#clip108_4397)">
		<path id="Vector" d="M28.2 10.44L29.56 10.44C30.82 10.44 31.85 9.41 31.85 8.14L31.85 2.29C31.85 1.02 30.82 0 29.56 0L28.2 0C26.94 0 25.91 1.02 25.91 2.29L25.91 4.4L20.2 4.4C19.83 2.97 18.53 1.91 17 1.91C15.46 1.91 14.16 2.97 13.79 4.4L8.08 4.4L8.08 2.29C8.08 1.02 7.05 0 5.79 0L4.43 0C3.17 0 2.14 1.02 2.14 2.29L2.14 8.14C2.14 9.41 3.17 10.44 4.43 10.44L5.79 10.44C7.05 10.44 8.08 9.41 8.08 8.14L8.08 6.03L13.79 6.03C14.09 7.2 15.01 8.12 16.18 8.42L16.18 23.68C15.13 24.03 14.36 25.02 14.36 26.19L14.36 27.96L8.08 27.96L8.08 25.85C8.08 24.58 7.05 23.55 5.79 23.55L4.43 23.55C3.17 23.55 2.14 24.58 2.14 25.85L2.14 31.7C2.14 32.97 3.17 34 4.43 34L5.79 34C7.05 34 8.08 32.97 8.08 31.7L8.08 29.59L14.36 29.59L14.36 31.36C14.36 32.81 15.54 33.99 17 33.99C18.45 33.99 19.63 32.81 19.63 31.36L19.63 29.59L25.91 29.59L25.91 31.7C25.91 32.97 26.94 34 28.2 34L29.56 34C30.82 34 31.85 32.97 31.85 31.7L31.85 25.85C31.85 24.58 30.82 23.55 29.56 23.55L28.2 23.55C26.94 23.55 25.91 24.58 25.91 25.85L25.91 27.96L19.63 27.96L19.63 26.19C19.63 25.02 18.86 24.03 17.81 23.69L17.81 8.42C18.98 8.12 19.9 7.2 20.2 6.03L25.91 6.03L25.91 8.14C25.91 9.41 26.94 10.44 28.2 10.44ZM6.45 8.14C6.45 8.5 6.15 8.8 5.79 8.8L4.43 8.8C4.07 8.8 3.77 8.5 3.77 8.14L3.77 2.29C3.77 1.93 4.07 1.63 4.43 1.63L5.79 1.63C6.15 1.63 6.45 1.93 6.45 2.29L6.45 8.14ZM6.45 31.7C6.45 32.06 6.15 32.36 5.79 32.36L4.43 32.36C4.07 32.36 3.77 32.06 3.77 31.7L3.77 25.85C3.77 25.49 4.07 25.19 4.43 25.19L5.79 25.19C6.15 25.19 6.45 25.49 6.45 25.85L6.45 31.7ZM27.54 25.85C27.54 25.49 27.84 25.19 28.2 25.19L29.56 25.19C29.92 25.19 30.22 25.49 30.22 25.85L30.22 31.7C30.22 32.06 29.92 32.36 29.56 32.36L28.2 32.36C27.84 32.36 27.54 32.06 27.54 31.7L27.54 25.85ZM17.99 31.36C17.99 31.91 17.54 32.36 17 32.36L17 32.36C16.45 32.36 16 31.91 16 31.36L16 26.19C16 25.64 16.45 25.19 17 25.19C17.54 25.19 17.99 25.64 17.99 26.19L17.99 31.36ZM17.05 6.88C17.03 6.88 17.02 6.88 17 6.88C16.98 6.88 16.96 6.88 16.94 6.88C16.04 6.85 15.33 6.12 15.33 5.22C15.33 4.3 16.08 3.55 17 3.55C17.91 3.55 18.66 4.3 18.66 5.22C18.66 6.12 17.95 6.85 17.05 6.88ZM27.54 2.29C27.54 1.93 27.84 1.63 28.2 1.63L29.56 1.63C29.92 1.63 30.22 1.93 30.22 2.29L30.22 8.14C30.22 8.5 29.92 8.8 29.56 8.8L28.2 8.8C27.84 8.8 27.54 8.5 27.54 8.14L27.54 2.29Z" fill="#FFFFFF" fill-opacity="1.000000" fill-rule="nonzero"/>
	</g>
</svg>
