<svg width="42.000000" height="42.000000" viewBox="0 0 42 42" fill="none" xmlns="http://www.w3.org/2000/svg" xmlns:xlink="http://www.w3.org/1999/xlink">
	<desc>
			Created with Pixso.
	</desc>
	<defs>
		<clipPath id="clip108_4433">
			<rect id="Car-electronics" width="42.000000" height="42.000000" fill="white" fill-opacity="0"/>
		</clipPath>
	</defs>
	<rect id="Car-electronics" width="42.000000" height="42.000000" fill="#FFFFFF" fill-opacity="0"/>
	<g clip-path="url(#clip108_4433)">
		<path id="Vector" d="M6.34 11.25L6.34 15.22C6.34 15.74 5.93 16.15 5.42 16.15C4.91 16.15 4.49 15.74 4.49 15.22L4.49 11.25C4.49 10.74 4.91 10.33 5.42 10.33C5.93 10.33 6.34 10.74 6.34 11.25ZM9.22 26.48L4.51 26.48C4 26.48 3.58 26.89 3.58 27.4C3.58 27.91 4 28.33 4.51 28.33L9.22 28.33C9.73 28.33 10.14 27.91 10.14 27.4C10.14 26.89 9.73 26.48 9.22 26.48ZM9.22 29.8L7.11 29.8C6.6 29.8 6.19 30.21 6.19 30.73C6.19 31.24 6.6 31.65 7.11 31.65L9.22 31.65C9.73 31.65 10.14 31.24 10.14 30.73C10.14 30.21 9.73 29.8 9.22 29.8ZM8.9 11.79C8.39 11.79 7.97 12.21 7.97 12.72L7.97 15.22C7.97 15.74 8.39 16.15 8.9 16.15C9.41 16.15 9.82 15.74 9.82 15.22L9.82 12.72C9.82 12.21 9.41 11.79 8.9 11.79ZM17.27 25.23C17.27 25.74 17.69 26.15 18.2 26.15L19.24 26.15C19.75 26.15 20.17 25.74 20.17 25.23C20.17 24.72 19.75 24.3 19.24 24.3L18.2 24.3C17.69 24.3 17.27 24.72 17.27 25.23ZM35.77 31.94L35.77 31.94C35.26 31.94 34.85 32.36 34.85 32.87C34.85 33.38 35.26 33.79 35.77 33.79C36.28 33.79 36.7 33.38 36.7 32.87C36.7 32.36 36.28 31.94 35.77 31.94ZM29.38 32.87C29.38 33.38 28.96 33.79 28.45 33.79L23.11 33.79C22.69 35.76 20.93 37.23 18.85 37.23C16.7 37.23 14.92 35.68 14.55 33.64C13.81 33.41 13.2 32.91 12.87 32.25C12.71 31.92 12.62 31.57 12.62 31.21L12.62 25.04C12.62 24.53 13.04 24.11 13.55 24.11C14.06 24.11 14.47 24.53 14.47 25.04L14.47 31.21C14.47 31.28 14.49 31.35 14.53 31.43C14.56 31.49 14.6 31.55 14.66 31.61C15.2 29.82 16.87 28.5 18.85 28.5C20.93 28.5 22.69 29.98 23.11 31.94L28.45 31.94C28.96 31.94 29.38 32.36 29.38 32.87ZM21.36 32.87C21.36 31.48 20.23 30.35 18.85 30.35C17.47 30.35 16.34 31.47 16.33 32.85C16.33 32.86 16.33 32.87 16.33 32.88C16.34 34.26 17.46 35.38 18.85 35.38C20.23 35.38 21.36 34.25 21.36 32.87ZM12.37 10.33C11.86 10.33 11.45 10.74 11.45 11.25L11.45 15.22C11.45 15.74 11.86 16.15 12.37 16.15C12.89 16.15 13.3 15.74 13.3 15.22L13.3 11.25C13.3 10.74 12.89 10.33 12.37 10.33ZM41.99 29.3L41.99 29.83C41.99 30.22 41.98 30.66 41.98 31.21C41.98 32.31 41.19 33.27 40.07 33.64C39.7 35.68 37.91 37.23 35.77 37.23C33.36 37.23 31.41 35.27 31.41 32.87C31.41 30.46 33.36 28.5 35.77 28.5C37.74 28.5 39.41 29.81 39.95 31.61C40.07 31.49 40.13 31.35 40.13 31.21C40.13 30.66 40.14 30.21 40.14 29.82L40.14 29.29C40.14 28.53 40.15 27.49 40.14 27.01C40.13 26.67 40.12 26.39 40.1 26.15L25.86 26.15C25.53 26.15 24.76 26.15 22.38 23.8C21.65 23.08 20.21 21.56 19.94 20.92C19.75 20.44 19.98 19.9 20.45 19.71C20.91 19.52 21.44 19.73 21.65 20.19C21.77 20.41 22.52 21.34 23.61 22.42C24.99 23.79 25.72 24.23 25.92 24.3L39.06 24.3C38.76 24.02 38.38 23.68 37.89 23.24C37.63 23.02 37.35 22.77 37.05 22.49C36.82 22.29 36.6 22.08 36.38 21.87C36.07 21.57 35.74 21.26 35.41 20.98C35.11 20.73 34.82 20.49 34.55 20.26C31.12 17.37 30.2 16.6 27.3 16.6L20.92 16.6C20.4 16.6 19.99 16.18 19.99 15.67C19.99 15.16 20.4 14.75 20.92 14.75L27.3 14.75C30.87 14.75 32.3 15.95 35.75 18.85C36.01 19.07 36.3 19.31 36.59 19.56C36.98 19.88 37.33 20.21 37.66 20.54C37.88 20.74 38.08 20.94 38.28 21.12C38.59 21.39 38.86 21.64 39.12 21.86C41.33 23.82 41.93 24.35 41.99 26.96C42 27.48 41.99 28.49 41.99 29.3ZM38.28 32.86C38.28 31.48 37.15 30.35 35.77 30.35C34.38 30.35 33.26 31.48 33.26 32.87C33.26 34.25 34.38 35.38 35.77 35.38C37.16 35.38 38.28 34.25 38.28 32.87C38.28 32.86 38.28 32.86 38.28 32.86ZM12.18 22.48C12.18 22.99 11.76 23.41 11.25 23.41L6.54 23.41C6.03 23.41 5.62 22.99 5.62 22.48C5.62 21.97 6.03 21.56 6.54 21.56L7.97 21.56L7.97 19.98L0.92 19.98C0.41 19.98 0 19.57 0 19.06L0 5.68C0 5.17 0.41 4.76 0.92 4.76L16.87 4.76C17.38 4.76 17.8 5.17 17.8 5.68L17.8 19.06C17.8 19.57 17.38 19.98 16.87 19.98L9.82 19.98L9.82 21.56L11.25 21.56C11.76 21.56 12.18 21.97 12.18 22.48ZM15.95 18.13L15.95 6.61L1.85 6.61L1.85 18.13L15.95 18.13ZM18.85 31.94L18.85 31.94C18.33 31.94 17.92 32.36 17.92 32.87C17.92 33.38 18.34 33.79 18.85 33.79C19.36 33.79 19.77 33.38 19.77 32.87C19.77 32.36 19.36 31.94 18.85 31.94Z" fill="#2E3548" fill-opacity="1.000000" fill-rule="nonzero"/>
	</g>
</svg>
