<svg width="42.000000" height="42.000000" viewBox="0 0 42 42" fill="none" xmlns="http://www.w3.org/2000/svg" xmlns:xlink="http://www.w3.org/1999/xlink">
	<desc>
			Created with Pixso.
	</desc>
	<defs>
		<clipPath id="clip108_4419">
			<rect id="Car-engine" width="42.000000" height="42.000000" fill="white" fill-opacity="0"/>
		</clipPath>
	</defs>
	<rect id="Car-engine" width="42.000000" height="42.000000" fill="#FFFFFF" fill-opacity="0"/>
	<g clip-path="url(#clip108_4419)">
		<path id="Vector" d="M15.79 34.71C16.33 34.82 16.67 35.35 16.56 35.88C16.46 36.34 16.05 36.66 15.59 36.66C15.52 36.66 15.46 36.65 15.39 36.64C9.63 35.43 5.13 30.92 3.92 25.17C3.8 24.64 4.15 24.11 4.68 24C5.21 23.89 5.74 24.23 5.85 24.76C6.9 29.75 10.8 33.66 15.79 34.71ZM19.46 22.09C19.46 21.54 19.02 21.1 18.47 21.1L18.47 21.1C17.92 21.1 17.48 21.54 17.48 22.09C17.48 22.63 17.93 23.08 18.47 23.08C19.02 23.08 19.46 22.63 19.46 22.09ZM42 2.41L42 14.43C42 14.98 41.55 15.42 41.01 15.42C40.46 15.42 40.02 14.98 40.02 14.43L40.02 13.23L24.72 13.23L21.38 19.02C21.96 19.58 22.39 20.3 22.58 21.1L27.33 21.1L27.33 16.4C27.33 15.86 27.77 15.42 28.31 15.42C28.86 15.42 29.3 15.86 29.3 16.4L29.3 22.06C29.3 22.07 29.3 22.08 29.3 22.09C29.3 25.33 27.87 28.24 25.61 30.23C25.59 30.25 25.56 30.28 25.54 30.3C24.64 31.07 23.64 31.68 22.56 32.12C21.31 32.63 19.95 32.92 18.51 32.92C18.51 32.92 18.51 32.92 18.51 32.92C18.51 32.92 18.5 32.92 18.5 32.92C18.5 32.92 18.5 32.92 18.49 32.92C18.49 32.92 18.49 32.92 18.49 32.92C18.48 32.92 18.48 32.92 18.48 32.92C18.47 32.92 18.47 32.92 18.47 32.92C16.52 32.92 14.69 32.4 13.11 31.5C13.09 31.49 13.07 31.48 13.05 31.47C13.03 31.46 13.01 31.45 13 31.43C9.79 29.55 7.64 26.07 7.64 22.09C7.64 18.11 9.79 14.63 13 12.74C13.01 12.73 13.03 12.72 13.05 12.71C13.07 12.7 13.09 12.69 13.11 12.68C14.69 11.77 16.52 11.26 18.47 11.26C18.55 11.26 18.62 11.27 18.7 11.28C18.77 11.27 18.85 11.26 18.93 11.26L24.14 11.26C24.15 11.26 24.16 11.26 24.17 11.26L40.02 11.26L40.02 5.59L18.93 5.59C18.85 5.59 18.77 5.58 18.7 5.56C18.62 5.58 18.55 5.59 18.47 5.59C9.37 5.59 1.97 12.99 1.97 22.09C1.97 31.19 9.37 38.59 18.47 38.59C24.82 38.59 30.68 34.88 33.39 29.13C33.44 29.03 33.5 28.95 33.57 28.87C34.5 26.82 35.02 24.55 35.03 22.15C35.03 22.15 35.03 22.14 35.03 22.13L35.03 16.4C35.03 15.86 35.47 15.42 36.02 15.42C36.56 15.42 37 15.86 37 16.4L37 22.06C37 22.07 37 22.08 37 22.09C37 32.28 28.71 40.56 18.53 40.56C18.51 40.56 18.49 40.56 18.47 40.56C8.28 40.56 0 32.28 0 22.09C0 11.9 8.28 3.62 18.47 3.62C18.55 3.62 18.62 3.62 18.7 3.64C18.77 3.62 18.85 3.62 18.93 3.62L40.02 3.62L40.02 2.41C40.02 1.87 40.46 1.43 41.01 1.43C41.55 1.43 42 1.87 42 2.41ZM9.66 21.1L14.36 21.1C14.55 20.3 14.98 19.58 15.56 19.02L13.21 14.96C11.28 16.39 9.94 18.59 9.66 21.1ZM13.21 29.22L15.56 25.15C14.98 24.6 14.55 23.88 14.36 23.08L9.66 23.08C9.94 25.59 11.28 27.79 13.21 29.22ZM22.02 30.21L19.67 26.14C19.29 26.26 18.89 26.32 18.47 26.32C18.05 26.32 17.65 26.26 17.27 26.14L14.92 30.21C16.01 30.68 17.21 30.95 18.47 30.95C18.47 30.95 18.47 30.95 18.48 30.95L18.48 30.95C18.48 30.95 18.48 30.95 18.48 30.95C18.49 30.95 18.49 30.95 18.49 30.95C18.49 30.95 18.5 30.95 18.5 30.95C18.5 30.95 18.5 30.95 18.51 30.95C18.51 30.95 18.51 30.95 18.51 30.95C19.63 30.94 20.73 30.72 21.76 30.31C21.85 30.28 21.93 30.24 22.02 30.21ZM18.47 24.34C19.71 24.34 20.72 23.33 20.72 22.09C20.72 20.85 19.71 19.83 18.47 19.83C17.23 19.83 16.21 20.85 16.21 22.09C16.21 23.33 17.23 24.34 18.47 24.34ZM21.38 25.15L23.72 29.22C25.66 27.79 26.99 25.59 27.27 23.08L22.58 23.08C22.39 23.88 21.96 24.6 21.38 25.15ZM22.44 13.23L18.93 13.23C18.85 13.23 18.77 13.22 18.7 13.2C18.62 13.22 18.55 13.23 18.47 13.23C17.21 13.23 16.01 13.49 14.92 13.97L17.27 18.03C17.65 17.92 18.05 17.86 18.47 17.86C18.89 17.86 19.29 17.92 19.67 18.03L22.44 13.23Z" fill="#FFFFFF" fill-opacity="1.000000" fill-rule="nonzero"/>
	</g>
</svg>
