<svg width="42.000000" height="42.000000" viewBox="0 0 42 42" fill="none" xmlns="http://www.w3.org/2000/svg" xmlns:xlink="http://www.w3.org/1999/xlink">
	<desc>
			Created with Pixso.
	</desc>
	<defs>
		<clipPath id="clip108_4386">
			<rect id="Сar-steering" width="42.000000" height="42.000000" fill="white" fill-opacity="0"/>
		</clipPath>
	</defs>
	<rect id="Сar-steering" width="42.000000" height="42.000000" fill="#FFFFFF" fill-opacity="0"/>
	<g clip-path="url(#clip108_4386)">
		<path id="Vector" d="M19.33 23.8C18.84 23.49 18.43 23.04 18.14 22.51C17.93 22.14 17.53 21.94 17.13 21.98C13.13 21.85 9.2 21.53 5.42 21.01C4.85 20.93 4.33 21.33 4.25 21.89C4.17 22.46 4.57 22.98 5.14 23.06C5.22 23.07 5.31 23.09 5.4 23.1C6.28 29.74 11.29 35.09 17.85 36.42L17.85 36.63C17.85 37.2 18.31 37.66 18.88 37.66C19.46 37.66 19.92 37.2 19.92 36.63L19.92 24.76C19.92 24.75 19.92 24.73 19.92 24.72C19.91 24.31 19.67 23.96 19.33 23.8ZM17.85 34.29C12.54 33.04 8.48 28.74 7.54 23.37C10.51 23.71 13.56 23.93 16.65 24.04C16.99 24.52 17.39 24.94 17.85 25.29L17.85 34.29ZM16.88 11.24C17.15 11.74 16.97 12.37 16.47 12.64C15.19 13.34 14.07 14.33 13.23 15.52C13.03 15.8 12.71 15.96 12.38 15.96C12.18 15.96 11.97 15.9 11.79 15.77C11.32 15.44 11.21 14.79 11.54 14.32C12.56 12.88 13.92 11.67 15.47 10.82C15.98 10.55 16.61 10.73 16.88 11.24ZM26.17 30.23C25.85 29.76 25.96 29.12 26.43 28.79C27.54 28.01 28.5 26.98 29.19 25.8C29.48 25.31 30.12 25.15 30.61 25.44C31.1 25.73 31.27 26.36 30.98 26.86C30.14 28.28 28.98 29.54 27.62 30.49C27.44 30.61 27.23 30.68 27.02 30.68C26.7 30.68 26.37 30.52 26.17 30.23ZM37.86 21.87C37.78 21.3 37.26 20.91 36.69 20.99C32.73 21.54 28.61 21.9 24.79 22.03C24.75 22.03 24.71 22.03 24.67 22.04C24.52 22.06 24.38 22.11 24.26 22.19C24.14 22.26 24.03 22.36 23.95 22.49C23.92 22.52 23.9 22.55 23.89 22.59C23.64 23.03 23.3 23.41 22.89 23.7C22.85 23.73 22.81 23.75 22.78 23.78C22.69 23.86 22.62 23.95 22.56 24.05C22.48 24.18 22.44 24.34 22.43 24.5C22.43 24.52 22.42 24.55 22.42 24.58L22.42 36.63C22.42 37.2 22.89 37.66 23.46 37.66C24.04 37.66 24.5 37.2 24.5 36.63L24.5 36.34C27.67 35.62 30.49 33.96 32.68 31.53C34.83 29.15 36.17 26.25 36.59 23.09C36.72 23.08 36.85 23.06 36.98 23.04C37.55 22.96 37.94 22.44 37.86 21.87ZM24.5 34.2L24.5 25.07C24.84 24.78 25.14 24.45 25.39 24.08C28.32 23.97 31.4 23.72 34.45 23.36C33.53 28.55 29.6 32.85 24.5 34.2ZM21 0C9.42 0 0 9.42 0 21C0 32.57 9.42 42 21 42C32.57 42 42 32.57 42 21C42 9.42 32.57 0 21 0ZM21 39.92C10.56 39.92 2.07 31.43 2.07 21C2.07 10.56 10.56 2.07 21 2.07C31.43 2.07 39.92 10.56 39.92 21C39.92 31.43 31.43 39.92 21 39.92ZM23.86 19.34C23.89 19.38 23.92 19.42 23.95 19.47C24.03 19.59 24.14 19.68 24.27 19.75C24.4 19.83 24.54 19.87 24.69 19.89C24.74 19.89 24.79 19.89 24.84 19.89C29.48 19.71 33.5 19.36 36.81 18.83C37.37 18.74 37.76 18.21 37.67 17.65C37.58 17.08 37.05 16.69 36.48 16.78C36.38 16.8 36.28 16.82 36.17 16.83C35.31 13.67 33.44 10.82 30.87 8.75C28.09 6.5 24.58 5.26 21 5.26C13.87 5.26 7.68 10 5.81 16.84C5.72 16.83 5.64 16.81 5.55 16.8C4.98 16.71 4.45 17.09 4.36 17.66C4.27 18.22 4.65 18.76 5.22 18.85C8.99 19.45 12.96 19.83 17.05 19.97C17.06 19.97 17.07 19.97 17.09 19.97C17.19 19.97 17.29 19.96 17.38 19.93C17.66 19.88 17.93 19.7 18.08 19.43C18.68 18.39 19.8 17.73 21.02 17.7C22.19 17.66 23.28 18.29 23.86 19.34ZM20.97 15.62C19.24 15.67 17.62 16.52 16.62 17.88C13.63 17.76 10.71 17.51 7.89 17.14C9.58 11.34 14.9 7.33 21 7.33C27.13 7.33 32.4 11.31 34.1 17.12C31.53 17.43 28.59 17.66 25.34 17.79C24.33 16.39 22.7 15.57 20.97 15.62Z" fill="#FFFFFF" fill-opacity="1.000000" fill-rule="nonzero"/>
	</g>
</svg>
