<svg width="17.000000" height="17.000000" viewBox="0 0 17 17" fill="none" xmlns="http://www.w3.org/2000/svg" xmlns:xlink="http://www.w3.org/1999/xlink">
	<desc>
			Created with Pixso.
	</desc>
	<defs/>
	<path id="Vector" d="M1.4 -0.25C0.94 -0.71 0.2 -0.71 -0.25 -0.25C-0.71 0.2 -0.71 0.94 -0.25 1.4L6.34 8L-0.25 14.59C-0.71 15.05 -0.71 15.79 -0.25 16.24C0.2 16.7 0.94 16.7 1.4 16.24L8 9.64L14.59 16.24C15.05 16.7 15.79 16.7 16.24 16.24C16.7 15.79 16.7 15.05 16.24 14.59L9.64 8L16.24 1.4C16.7 0.94 16.7 0.2 16.24 -0.25C15.79 -0.71 15.05 -0.71 14.59 -0.25L8 6.35L1.4 -0.25Z" fill="#FFFFFF" fill-opacity="1.000000" fill-rule="nonzero"/>
</svg>
