<svg width="20.000000" height="20.000000" viewBox="0 0 20 20" fill="none" xmlns="http://www.w3.org/2000/svg" xmlns:xlink="http://www.w3.org/1999/xlink">
	<desc>
			Created with Pixso.
	</desc>
	<defs>
		<clipPath id="clip108_1399">
			<rect id="Icon" width="20.000000" height="20.000000" fill="white" fill-opacity="0"/>
		</clipPath>
		<linearGradient id="paint_linear_108_1401_0" x1="3.384766" y1="0.000004" x2="16.615677" y2="19.999962" gradientUnits="userSpaceOnUse">
			<stop stop-color="#DB2A1D"/>
			<stop offset="1.000000" stop-color="#DB2A1D"/>
		</linearGradient>
	</defs>
	<rect id="Icon" width="20.000000" height="20.000000" fill="#FFFFFF" fill-opacity="0"/>
	<g clip-path="url(#clip108_1399)">
		<path id="Vector" d="M10 0C6.35 0 3.38 2.96 3.38 6.61C3.38 8.08 4.32 10.48 6.25 13.93C7.61 16.38 8.96 18.42 9.01 18.5L10 20L10.98 18.5C11.04 18.42 12.38 16.38 13.74 13.93C15.67 10.48 16.61 8.08 16.61 6.61C16.61 2.96 13.64 0 10 0ZM10 10C8.1 10 6.57 8.46 6.57 6.57C6.57 4.67 8.1 3.14 10 3.14C11.89 3.14 13.42 4.67 13.42 6.57C13.42 8.46 11.89 10 10 10Z" fill="url(#paint_linear_108_1401_0)" fill-opacity="1.000000" fill-rule="nonzero"/>
	</g>
</svg>
