<svg width="190" height="78" viewBox="0 0 190 78" fill="none" xmlns="http://www.w3.org/2000/svg">
<g clip-path="url(#clip0_108_79)">
<path d="M28.7098 50.4961C19.3665 50.4961 11.7679 42.9557 11.7679 33.6876C11.7679 24.42 19.3665 16.8791 28.7098 16.8791C38.0505 16.8791 45.6497 24.42 45.6497 33.6876C45.6497 42.9557 38.0505 50.4961 28.7098 50.4961ZM56.0074 42.8525C56.7425 40.7062 57.2208 38.4531 57.4168 36.1315L52.7454 33.8866C52.7507 33.1353 52.7236 32.3784 52.6552 31.6182C52.6362 31.3553 52.6006 31.0972 52.5707 30.8357L56.9651 28.0804C56.5081 25.7917 55.7815 23.6054 54.8154 21.5618L49.6248 21.9355C49.1185 21.0435 48.5526 20.1862 47.9378 19.3745L50.3535 14.8157C48.8275 13.0937 47.0943 11.5572 45.2001 10.2397L40.8963 13.1341C40.0146 12.6185 39.0983 12.1554 38.1484 11.75L37.9444 6.60416C35.7816 5.87521 33.5091 5.39982 31.1723 5.2002L28.9086 9.83904C28.152 9.83245 27.3933 9.86183 26.6232 9.92718C26.3562 9.95032 26.0952 9.98342 25.8341 10.0145L23.0611 5.6497C20.7515 6.1074 18.5477 6.82851 16.4856 7.78539L16.8637 12.9349C15.9657 13.439 15.1006 13.998 14.2847 14.6106L9.68659 12.2121C7.94785 13.7292 6.39924 15.4471 5.07722 17.3291L7.99711 21.5968C7.4743 22.4725 7.00354 23.3811 6.59834 24.3206L1.40935 24.5228C0.674868 26.6691 0.198757 28.9197 0 31.2444L4.67389 33.4891C4.66888 34.241 4.69356 34.9969 4.75947 35.7578C4.7831 36.0208 4.81617 36.2777 4.85145 36.5398L0.452123 39.2931C0.914724 41.5822 1.63803 43.7685 2.60387 45.8125L7.79241 45.4395C8.30124 46.3308 8.86469 47.1845 9.47983 47.9991L7.06305 52.5565C8.58942 54.2845 10.3258 55.8198 12.2192 57.1336L16.5209 54.2386C17.4049 54.7592 18.3221 55.2238 19.2688 55.6257L19.4733 60.7726C21.6359 61.4997 23.9021 61.9761 26.242 62.1724L28.511 57.5352C29.2652 57.5397 30.0297 57.5142 30.7971 57.4488C31.0606 57.4279 31.3217 57.3915 31.5803 57.3586L34.3553 61.727C36.6681 61.2683 38.8689 60.5499 40.9318 59.5932L40.5566 54.4417C41.4511 53.9345 42.3134 53.3769 43.1357 52.7669L47.731 55.1643C49.4666 53.6471 51.0147 51.9304 52.3399 50.0489L49.4254 45.7809C49.943 44.9039 50.4107 43.9939 50.8217 43.0533L56.0074 42.8525Z" fill="url(#paint0_linear_108_79)"/>
<path d="M40.5475 32.6616C41.1161 39.1524 36.2792 44.8707 29.741 45.434C23.2032 46.0016 17.4378 41.1967 16.8665 34.7116C16.3008 28.2241 21.1381 22.5048 27.6757 21.9416C34.2165 21.3749 39.9819 26.1774 40.5475 32.6616ZM12.9785 33.6873C12.9785 42.2926 20.0331 49.2946 28.7097 49.2946C37.3841 49.2946 44.4386 42.2926 44.4386 33.6873C44.4386 25.0814 37.3841 18.0791 28.7097 18.0791C20.0331 18.0791 12.9785 25.0814 12.9785 33.6873Z" fill="url(#paint1_linear_108_79)"/>
<path d="M79.2827 52.0213C81.5953 55.9009 80.3009 60.9075 76.3906 63.2029C72.4292 65.5257 67.3115 64.1781 65.0368 60.1878C62.9037 56.4399 64.1827 51.5052 67.8721 49.2393C71.801 46.8257 76.9407 48.0997 79.2827 52.0213ZM58.7003 56.1183C58.5449 63.4935 64.466 69.6194 71.8983 69.7735C79.3316 69.9287 85.5053 64.053 85.6607 56.6797C85.818 49.305 79.8978 43.1791 72.4617 43.0245C65.0286 42.87 58.855 48.7436 58.7003 56.1183Z" fill="url(#paint2_linear_108_79)"/>
<path d="M71.8863 70.352C64.1323 70.1911 57.9555 63.8001 58.1189 56.1055C58.2793 48.4124 64.7198 42.2836 72.4765 42.4451C80.2309 42.6059 86.4063 48.997 86.2464 56.6915C86.0829 64.3854 79.6434 70.5141 71.8863 70.352ZM93.8478 58.5191C94.0006 56.9628 93.9875 55.3949 93.7997 53.8259L90.1316 52.9555C89.9386 52.0016 89.6662 51.05 89.323 50.1176L92.0115 47.4861C91.6884 46.7782 91.3234 46.0801 90.9157 45.3987C90.5123 44.7198 90.0722 44.07 89.6007 43.4467L85.9821 44.5195C85.3243 43.7666 84.6164 43.0754 83.8602 42.4521L84.862 38.8431C83.5668 37.9251 82.187 37.1561 80.7399 36.5401L78.1414 39.2668C77.2053 38.9451 76.2445 38.7004 75.2709 38.5323L74.3104 34.9006C72.7457 34.7502 71.1627 34.767 69.5898 34.9586L68.7051 38.5964C67.7422 38.7815 66.7901 39.0507 65.851 39.3965L63.1962 36.7316C62.4888 37.049 61.7788 37.4063 61.0931 37.8132C60.4072 38.2142 59.7517 38.6523 59.1256 39.114L60.2031 42.7109C59.4469 43.3645 58.7501 44.0655 58.1214 44.8142L54.484 43.8236C53.5565 45.104 52.7835 46.474 52.163 47.9063L54.9085 50.4868C54.5846 51.4167 54.3454 52.37 54.1737 53.3358L50.5172 54.288C50.3626 55.841 50.3784 57.412 50.5662 58.9777L54.2393 59.8447C54.4271 60.8039 54.696 61.7503 55.0392 62.6872L52.3536 65.3177C52.6749 66.0263 53.0361 66.7209 53.4445 67.3987C53.8525 68.0824 54.2907 68.7352 54.7587 69.3546L58.3825 68.2845C59.0385 69.0347 59.7517 69.7255 60.5026 70.3482L59.5062 73.9612C60.7992 74.8776 62.1756 75.6502 63.6176 76.258L66.2218 73.5362C67.1608 73.8602 68.1124 74.1019 69.0947 74.2672L70.0521 77.8983C71.6143 78.0454 73.2005 78.0357 74.7783 77.8483L75.6521 74.2057C76.6175 74.0208 77.5724 73.7512 78.5114 73.4063L81.1752 76.0724C81.8826 75.7569 82.5841 75.395 83.2701 74.9915C83.9579 74.5888 84.6083 74.1522 85.2366 73.6845L84.1594 70.094C84.9163 69.4416 85.6128 68.7362 86.2408 67.9898L89.881 68.9795C90.8065 67.6969 91.5845 66.3272 92.1975 64.8954L89.4514 62.3117C89.7727 61.388 90.0224 60.4372 90.1918 59.4672L93.8478 58.5191Z" fill="url(#paint3_linear_108_79)"/>
<path d="M44.4383 33.6874C44.4383 42.2927 37.3838 49.2947 28.7095 49.2947C20.0328 49.2947 12.9782 42.2927 12.9782 33.6874C12.9782 25.0815 20.0328 18.0792 28.7095 18.0792C37.3838 18.0792 44.4383 25.0815 44.4383 33.6874ZM11.7676 33.6874C11.7676 42.9554 19.3662 50.4959 28.7095 50.4959C38.0502 50.4959 45.6494 42.9554 45.6494 33.6874C45.6494 24.4198 38.0502 16.8789 28.7095 16.8789C19.3662 16.8789 11.7676 24.4198 11.7676 33.6874Z" fill="white"/>
<path d="M85.6612 56.6796C85.5058 64.0529 79.332 69.9285 71.8987 69.7734C64.4665 69.6193 58.5455 63.4934 58.7008 56.1182C58.8555 48.7435 65.0291 42.8699 72.4622 43.0243C79.8983 43.179 85.8184 49.3049 85.6612 56.6796ZM58.1184 56.1059C57.9549 63.8005 64.1317 70.1915 71.8857 70.3523C79.6428 70.5145 86.0823 64.3858 86.2457 56.6919C86.4057 48.9973 80.2303 42.6063 72.4759 42.4455C64.7192 42.284 58.2787 48.4128 58.1184 56.1059Z" fill="white"/>
<path d="M85.0512 20.0344L90.1166 19.9698C89.9315 21.7372 89.3456 23.2406 88.3571 24.4799C87.3696 25.7193 86.126 26.6623 84.6277 27.3089C83.1294 27.9555 81.5224 28.2627 79.8069 28.2303C78.1891 28.1979 76.8264 27.8639 75.719 27.228C74.6223 26.5814 73.7592 25.7193 73.1294 24.6416C72.4997 23.5639 72.0817 22.3569 71.8753 21.0205C71.6799 19.6734 71.6745 18.2886 71.8591 16.866L72.0708 15.4273C72.2879 13.9401 72.6842 12.5122 73.2597 11.1435C73.846 9.7641 74.6115 8.53549 75.5561 7.45781C76.5007 6.36933 77.6245 5.51795 78.9274 4.90367C80.2304 4.28939 81.7124 3.99841 83.3737 4.03075C85.1109 4.06307 86.5875 4.42949 87.8036 5.12999C89.0199 5.83049 89.9585 6.80579 90.6213 8.05592C91.2945 9.29523 91.669 10.7556 91.745 12.4367L86.5983 12.4206C86.6201 11.5692 86.5278 10.831 86.3215 10.2059C86.1152 9.58089 85.7515 9.09053 85.2303 8.73485C84.72 8.37923 83.998 8.18524 83.0642 8.15292C82.0653 8.12058 81.2239 8.32534 80.5398 8.76717C79.8558 9.19825 79.2911 9.78022 78.846 10.5131C78.4117 11.2351 78.0751 12.0272 77.8362 12.8894C77.5973 13.7407 77.4182 14.5759 77.2987 15.395L77.1033 16.8822C77.0164 17.5612 76.9459 18.3101 76.8916 19.1292C76.8482 19.9375 76.8971 20.7188 77.0382 21.4732C77.1902 22.2168 77.4996 22.8365 77.9665 23.3322C78.4442 23.8279 79.1554 24.0919 80.1 24.1243C81.0339 24.1458 81.8373 24.0004 82.5105 23.6878C83.1837 23.3645 83.7319 22.8957 84.1554 22.2815C84.5788 21.6564 84.8774 20.9074 85.0512 20.0344ZM103.065 10.4161L100.003 27.907H95.0194L98.0807 10.4161H103.065ZM108.537 10.4161L107.853 14.3119H92.0384L92.723 10.4161H108.537ZM116.485 23.7363L117.674 16.1709C117.718 15.7399 117.701 15.3357 117.626 14.9586C117.56 14.5814 117.398 14.2742 117.137 14.0371C116.876 13.7892 116.49 13.6599 115.98 13.6491C115.535 13.6384 115.139 13.7192 114.791 13.8916C114.455 14.0532 114.178 14.2904 113.961 14.6029C113.755 14.9154 113.608 15.2818 113.522 15.7022L108.538 15.7345C108.592 14.743 108.863 13.8862 109.352 13.1642C109.852 12.4421 110.487 11.8548 111.258 11.4022C112.029 10.9388 112.869 10.5993 113.782 10.3838C114.694 10.1682 115.589 10.0712 116.469 10.0927C117.696 10.1143 118.803 10.3729 119.792 10.8687C120.779 11.3537 121.535 12.0542 122.055 12.9702C122.588 13.8755 122.794 14.9747 122.674 16.2679L121.486 23.607C121.388 24.2428 121.301 24.9164 121.225 25.6277C121.16 26.3282 121.263 26.9855 121.535 27.5998L121.518 27.907L116.648 27.9232C116.431 27.255 116.323 26.5653 116.323 25.854C116.323 25.1319 116.377 24.426 116.485 23.7363ZM118.228 17.2379L117.772 20.0183L115.557 20.0021C115.123 20.0129 114.694 20.0775 114.271 20.1961C113.847 20.3039 113.467 20.4763 113.13 20.7134C112.793 20.9397 112.511 21.2307 112.284 21.5863C112.056 21.9312 111.914 22.3407 111.86 22.8149C111.806 23.1597 111.833 23.4669 111.941 23.7363C112.061 23.9949 112.24 24.1997 112.479 24.3506C112.717 24.5015 113.011 24.5823 113.358 24.5931C113.868 24.6039 114.363 24.5123 114.84 24.3183C115.329 24.1135 115.753 23.8279 116.111 23.4615C116.469 23.0843 116.713 22.6533 116.844 22.1683L117.805 24.3021C117.533 24.8948 117.207 25.4337 116.827 25.9187C116.448 26.4036 116.019 26.8239 115.54 27.1795C115.063 27.5244 114.531 27.7938 113.945 27.9878C113.369 28.1818 112.739 28.2734 112.056 28.2627C111.079 28.2411 110.183 28.0147 109.368 27.5837C108.565 27.1418 107.924 26.5383 107.446 25.7732C106.969 25.008 106.751 24.1243 106.795 23.122C106.838 21.9581 107.126 20.999 107.658 20.2446C108.19 19.4794 108.88 18.876 109.727 18.4341C110.573 17.9922 111.496 17.6797 112.495 17.4965C113.494 17.3133 114.487 17.2217 115.476 17.2217L118.228 17.2379ZM130.671 14.0532L127.072 34.6318H122.105L126.34 10.4161H130.933L130.671 14.0532ZM140.444 18.8705L140.395 19.21C140.275 20.2662 140.031 21.3331 139.662 22.4108C139.293 23.4777 138.794 24.4583 138.163 25.3528C137.545 26.2473 136.774 26.964 135.851 27.5029C134.928 28.0309 133.842 28.2788 132.593 28.2465C131.497 28.2141 130.59 27.9232 129.873 27.3736C129.168 26.8132 128.614 26.1019 128.213 25.2397C127.811 24.3667 127.534 23.4346 127.381 22.4431C127.229 21.4516 127.165 20.5141 127.187 19.6303L127.268 18.9514C127.442 17.9815 127.718 16.9738 128.098 15.9284C128.489 14.8831 128.999 13.9132 129.629 13.0187C130.259 12.1242 131.014 11.4022 131.893 10.8525C132.772 10.3029 133.793 10.0443 134.955 10.0766C136.16 10.1089 137.149 10.3945 137.92 10.9333C138.69 11.4614 139.271 12.1565 139.662 13.0187C140.063 13.8809 140.319 14.8238 140.427 15.8477C140.536 16.8715 140.542 17.879 140.444 18.8705ZM135.443 19.1939L135.476 18.8382C135.509 18.4179 135.531 17.9383 135.541 17.3995C135.563 16.8499 135.519 16.3218 135.411 15.8153C135.303 15.3088 135.091 14.8831 134.776 14.5382C134.471 14.1934 134.01 14.0102 133.391 13.9886C132.729 13.9671 132.165 14.0748 131.697 14.3119C131.231 14.549 130.84 14.8777 130.525 15.298C130.21 15.7183 129.961 16.1925 129.776 16.7206C129.602 17.2486 129.472 17.7983 129.385 18.3694L129.157 20.1476C129.092 20.7943 129.102 21.4354 129.19 22.0713C129.287 22.6963 129.521 23.2244 129.89 23.6555C130.27 24.0758 130.85 24.2967 131.633 24.3183C132.306 24.3398 132.87 24.189 133.327 23.8656C133.793 23.5315 134.168 23.1005 134.45 22.5724C134.743 22.0443 134.966 21.4839 135.118 20.8912C135.27 20.2877 135.379 19.7219 135.443 19.1939ZM152.236 10.4161L149.174 27.907H144.19L147.252 10.4161H152.236ZM157.708 10.4161L157.023 14.3119H141.21L141.893 10.4161H157.708Z" fill="#2E3548"/>
<path d="M112.57 43.6878L106.447 62.7467H100.779L109.557 39.21H113.141L112.57 43.6878ZM117.651 62.7467L111.512 43.6878L110.877 39.21H114.509L123.319 62.7467H117.651ZM117.391 53.9851V58.0587H105.03V53.9851H117.391ZM129.916 39.21V62.7467H124.623V39.21H129.916ZM143.743 39.21L134.932 53.2253H128.874L128.223 48.5212H132.163L137.326 39.21H143.743ZM138.255 62.7467L132.163 52.3362L135.926 48.7152L144.541 62.7467H138.255ZM165.144 39.21V62.7467H159.836V43.2998H150.812V62.7467H145.519V39.21H165.144ZM188.027 39.21V62.7467H182.719V43.2998H173.695V62.7467H168.402V39.21H188.027Z" fill="url(#paint4_linear_108_79)"/>
</g>
<defs>
<linearGradient id="paint0_linear_108_79" x1="-1.13225e-07" y1="62.1724" x2="60.7642" y2="58.3449" gradientUnits="userSpaceOnUse">
<stop stop-color="#DB2A1D"/>
<stop offset="1" stop-color="#DB2A1D"/>
</linearGradient>
<linearGradient id="paint1_linear_108_79" x1="12.9785" y1="49.2946" x2="46.2728" y2="47.1974" gradientUnits="userSpaceOnUse">
<stop stop-color="#DB2A1D"/>
<stop offset="1" stop-color="#DB2A1D"/>
</linearGradient>
<linearGradient id="paint2_linear_108_79" x1="58.6973" y1="69.7766" x2="87.236" y2="67.9788" gradientUnits="userSpaceOnUse">
<stop stop-color="#DB2A1D"/>
<stop offset="1" stop-color="#DB2A1D"/>
</linearGradient>
<linearGradient id="paint3_linear_108_79" x1="50.4121" y1="77.9997" x2="96.4907" y2="75.0971" gradientUnits="userSpaceOnUse">
<stop stop-color="#DB2A1D"/>
<stop offset="1" stop-color="#DB2A1D"/>
</linearGradient>
<linearGradient id="paint4_linear_108_79" x1="100.763" y1="34.8401" x2="192.961" y2="50.3722" gradientUnits="userSpaceOnUse">
<stop stop-color="#DB2A1D"/>
<stop offset="1" stop-color="#DB2A1D"/>
</linearGradient>
<clipPath id="clip0_108_79">
<rect width="190" height="78" fill="white"/>
</clipPath>
</defs>
</svg>
