<svg width="40.000000" height="25.000000" viewBox="0 0 40 25" fill="none" xmlns="http://www.w3.org/2000/svg" xmlns:xlink="http://www.w3.org/1999/xlink">
	<desc>
			Created with Pixso.
	</desc>
	<defs/>
	<path id="Vector" d="M25.41 22.32L14.59 22.32L14.59 2.67L25.41 2.67L25.41 22.32Z" fill="#FF5F00" fill-opacity="1.000000" fill-rule="nonzero"/>
	<path id="Vector" d="M15.27 12.5C15.27 8.51 17.12 4.96 20 2.67C17.82 0.93 15.13 -0.01 12.35 0C5.53 0 0 5.59 0 12.5C0 19.4 5.53 25 12.35 25C15.13 25 17.82 24.06 20 22.32C17.12 20.03 15.27 16.48 15.27 12.5Z" fill="#EB001B" fill-opacity="1.000000" fill-rule="nonzero"/>
	<path id="Vector" d="M40 12.5C40 19.4 34.46 25 27.64 25C24.86 25 22.17 24.06 20 22.32C22.87 20.03 24.72 16.48 24.72 12.5C24.72 8.51 22.87 4.96 20 2.67C22.17 0.93 24.86 -0.01 27.64 0C34.46 0 40 5.59 40 12.5Z" fill="#F79E1B" fill-opacity="1.000000" fill-rule="nonzero"/>
</svg>
