<svg width="51.000000" height="14.000000" viewBox="0 0 51 14" fill="none" xmlns="http://www.w3.org/2000/svg" xmlns:xlink="http://www.w3.org/1999/xlink">
	<desc>
			Created with Pixso.
	</desc>
	<defs>
		<linearGradient id="paint_linear_108_1489_0" x1="35.501755" y1="2.209944" x2="50.002502" y2="2.209944" gradientUnits="userSpaceOnUse">
			<stop stop-color="#00A0E5"/>
			<stop offset="1.000000" stop-color="#0077C3"/>
		</linearGradient>
	</defs>
	<path id="Combined-Shape" d="M36.07 5.81L36.07 13.67L40.38 13.67L40.38 9.01L45.26 9.01C47.32 9 49.07 7.67 49.73 5.81L36.07 5.81Z" fill="#37A72E" fill-opacity="1.000000" fill-rule="nonzero"/>
	<path id="Combined-Shape_1_" d="M35.5 -0.67C35.75 2.54 38.75 5.08 42.42 5.08C42.43 5.08 49.91 5.08 49.91 5.08C49.97 4.79 50 4.48 50 4.17C50 1.51 47.88 -0.65 45.25 -0.67L35.5 -0.67Z" fill="url(#paint_linear_108_1489_0)" fill-opacity="1.000000" fill-rule="nonzero"/>
	<path id="Combined-Shape_2_" d="M29.11 5C29.16 4.91 29.24 4.86 29.34 4.86C29.49 4.86 29.59 4.98 29.6 5.12L29.6 13.6L33.91 13.6L33.91 -0.67L29.6 -0.67C29.05 -0.65 28.44 -0.25 28.21 0.25L24.78 7.71C24.77 7.74 24.76 7.77 24.74 7.8C24.69 7.87 24.61 7.92 24.5 7.92C24.35 7.92 24.22 7.79 24.22 7.63L24.22 -0.67L19.91 -0.67L19.91 13.6L24.22 13.6C24.76 13.57 25.36 13.17 25.59 12.67L29.11 5.02C29.1 5.02 29.11 5.01 29.11 5Z" fill="#37A72E" fill-opacity="1.000000" fill-rule="nonzero"/>
	<path id="Combined-Shape_3_" d="M13.01 5.25L10.49 13.6L7.38 13.6L4.87 5.24C4.85 5.11 4.73 5.01 4.59 5.01C4.43 5.01 4.31 5.14 4.31 5.29L4.31 13.59L0 13.59L0 -0.68L3.7 -0.68L4.8 -0.68C5.59 -0.68 6.42 -0.05 6.65 0.71L8.75 7.67C8.86 8.02 9.02 8.01 9.13 7.67L11.23 0.71C11.46 -0.06 12.29 -0.68 13.08 -0.68L14.18 -0.68L17.88 -0.68L17.88 13.59L13.57 13.59L13.57 5.29C13.57 5.29 13.57 5.29 13.57 5.29C13.57 5.13 13.44 5 13.29 5C13.15 5.01 13.03 5.11 13.01 5.25Z" fill="#37A72E" fill-opacity="1.000000" fill-rule="nonzero"/>
</svg>
