<svg width="29.000000" height="29.000000" viewBox="0 0 29 29" fill="none" xmlns="http://www.w3.org/2000/svg" xmlns:xlink="http://www.w3.org/1999/xlink">
	<path id="Vector" d="M2.66 -0.17C1.88 -0.95 0.61 -0.95 -0.17 -0.17C-0.95 0.61 -0.95 1.88 -0.17 2.66L11.16 14L-0.17 25.33C-0.95 26.11 -0.95 27.38 -0.17 28.16C0.61 28.94 1.88 28.94 2.66 28.16L14 16.83L25.33 28.16C26.11 28.94 27.38 28.94 28.16 28.16C28.94 27.38 28.94 26.11 28.16 25.33L16.83 14L28.16 2.66C28.94 1.88 28.94 0.61 28.16 -0.17C27.38 -0.95 26.11 -0.95 25.33 -0.17L14 11.16L2.66 -0.17Z" fill="#060525" fill-opacity="1.000000" fill-rule="nonzero"/>
</svg>
