<svg width="8.000000" height="7.000000" viewBox="0 0 8 7" fill="none" xmlns="http://www.w3.org/2000/svg" xmlns:xlink="http://www.w3.org/1999/xlink">
	<desc>
			Created with Pixso.
	</desc>
	<defs/>
	<path id="Vector" d="M5.96 -0.03C6.11 -0.17 6.29 -0.24 6.49 -0.24C6.68 -0.24 6.87 -0.16 7.01 -0.03C7.15 0.11 7.23 0.29 7.23 0.49C7.24 0.68 7.17 0.87 7.04 1.02L3.04 6.01C2.98 6.08 2.89 6.14 2.8 6.18C2.71 6.22 2.61 6.24 2.51 6.25C2.41 6.25 2.31 6.23 2.21 6.19C2.12 6.15 2.04 6.1 1.96 6.03L-0.68 3.38C-0.75 3.31 -0.81 3.23 -0.86 3.14C-0.9 3.04 -0.92 2.94 -0.92 2.84C-0.92 2.74 -0.9 2.64 -0.87 2.55C-0.83 2.46 -0.77 2.37 -0.7 2.3C-0.63 2.23 -0.54 2.17 -0.45 2.14C-0.36 2.1 -0.26 2.08 -0.16 2.08C-0.06 2.08 0.04 2.1 0.14 2.15C0.23 2.19 0.31 2.25 0.38 2.32L2.47 4.41L5.95 -0.01L5.96 -0.03Z" fill="#FFFFFF" fill-opacity="1.000000" fill-rule="nonzero"/>
</svg>
