<svg width="32.000000" height="32.000000" viewBox="0 0 32 32" fill="none" xmlns="http://www.w3.org/2000/svg" xmlns:xlink="http://www.w3.org/1999/xlink">
	<desc>
			Created with Pixso.
	</desc>
	<defs>
		<clipPath id="clip108_77">
			<rect id="Phone" width="16.000000" height="16.000000" transform="translate(8.000000 8.000000)" fill="white" fill-opacity="0"/>
		</clipPath>
	</defs>
	<circle id="Ellipse" cx="16.000000" cy="16.000000" r="16.000000" fill="#FFFFFF" fill-opacity="1.000000"/>
	<rect id="Phone" width="16.000000" height="16.000000" transform="translate(8.000000 8.000000)" fill="#FFFFFF" fill-opacity="0"/>
	<g clip-path="url(#clip108_77)">
		<path id="Vector" d="M21.83 11.59L20.17 9.93C20.05 9.81 19.91 9.72 19.76 9.65C19.6 9.59 19.44 9.56 19.27 9.56C18.93 9.56 18.62 9.69 18.38 9.93L16.59 11.72C16.47 11.84 16.37 11.98 16.31 12.13C16.25 12.28 16.21 12.45 16.21 12.62C16.21 12.95 16.35 13.27 16.59 13.51L17.9 14.82C17.59 15.5 17.16 16.11 16.64 16.64C16.11 17.16 15.5 17.59 14.82 17.9L13.51 16.59C13.4 16.47 13.26 16.38 13.1 16.31C12.95 16.25 12.79 16.22 12.62 16.22C12.28 16.22 11.96 16.35 11.72 16.59L9.93 18.38C9.81 18.5 9.72 18.64 9.65 18.79C9.59 18.94 9.56 19.11 9.56 19.27C9.56 19.61 9.69 19.93 9.93 20.17L11.59 21.83C11.97 22.22 12.5 22.43 13.04 22.43C13.15 22.43 13.26 22.42 13.37 22.4C15.48 22.06 17.57 20.94 19.25 19.25C20.94 17.57 22.05 15.48 22.41 13.37C22.51 12.72 22.3 12.06 21.83 11.59Z" fill="#060525" fill-opacity="1.000000" fill-rule="nonzero"/>
	</g>
</svg>
