<svg width="40.000000" height="40.000000" viewBox="0 0 40 40" fill="none" xmlns="http://www.w3.org/2000/svg" xmlns:xlink="http://www.w3.org/1999/xlink">
	<desc>
			Created with Pixso.
	</desc>
	<defs>
		<clipPath id="clip108_1447">
			<rect id="Telegram 1" width="36.000000" height="36.000000" transform="translate(2.000000 2.000000)" fill="white" fill-opacity="0"/>
		</clipPath>
	</defs>
	<circle id="Ellipse 8" cx="20.000000" cy="20.000000" r="20.000000" fill="#2AABEE" fill-opacity="1.000000"/>
	<rect id="Telegram 1" width="36.000000" height="36.000000" transform="translate(2.000000 2.000000)" fill="#FFFFFF" fill-opacity="0"/>
	<g clip-path="url(#clip108_1447)">
		<path id="Background" d="M38 20C38 29.94 29.94 38 20 38C10.05 38 2 29.94 2 20C2 10.05 10.05 2 20 2C29.94 2 38 10.05 38 20Z" fill="#2AABEE" fill-opacity="1.000000" fill-rule="evenodd"/>
		<path id="Telegram" d="M10.25 19.68C15.49 17.4 18.98 15.9 20.72 15.17C25.71 13.1 26.75 12.74 27.42 12.73C27.67 12.72 27.91 12.8 28.12 12.94C28.26 13.06 28.35 13.23 28.37 13.42C28.41 13.66 28.42 13.89 28.4 14.13C28.13 16.98 26.96 23.86 26.37 27.04C26.12 28.38 25.62 28.83 25.14 28.88C24.1 28.97 23.3 28.19 22.29 27.53C20.71 26.49 19.82 25.85 18.29 24.84C16.51 23.66 17.66 23.03 18.67 21.98C18.94 21.7 23.53 17.52 23.62 17.14C23.63 17.09 23.63 17.03 23.62 16.98C23.6 16.92 23.57 16.87 23.54 16.83C23.48 16.79 23.42 16.77 23.35 16.77C23.29 16.76 23.23 16.77 23.16 16.79C23.01 16.83 20.48 18.49 15.59 21.8C14.88 22.29 14.23 22.53 13.65 22.52C13 22.5 11.77 22.15 10.85 21.85C9.73 21.48 8.84 21.29 8.91 20.67C8.96 20.35 9.4 20.02 10.25 19.68Z" fill="#FFFFFF" fill-opacity="1.000000" fill-rule="evenodd"/>
	</g>
</svg>
