<svg width="40.000000" height="40.000000" viewBox="0 0 40 40" fill="none" xmlns="http://www.w3.org/2000/svg" xmlns:xlink="http://www.w3.org/1999/xlink">
	<desc>
			Created with Pixso.
	</desc>
	<defs>
		<clipPath id="clip108_1457">
			<rect id="Viber 1" width="40.000000" height="40.000000" fill="white" fill-opacity="0"/>
		</clipPath>
	</defs>
	<rect id="Viber 1" width="40.000000" height="40.000000" fill="#FFFFFF" fill-opacity="0"/>
	<g clip-path="url(#clip108_1457)">
		<path id="Background" d="M40 20C40 31.04 31.04 40 20 40C8.95 40 0 31.04 0 20C0 8.95 8.95 0 20 0C31.04 0 40 8.95 40 20Z" fill="#7360F2" fill-opacity="1.000000" fill-rule="evenodd"/>
		<path id="Vector" d="M27.6 12.43C27.09 11.95 25.01 10.45 20.39 10.43C20.39 10.43 14.94 10.1 12.29 12.54C10.8 14.01 10.29 16.18 10.24 18.86C10.2 21.55 10.12 26.57 14.96 27.93L14.96 30.01C14.96 30.01 14.93 30.85 15.49 31.03C16.16 31.23 16.55 30.59 17.19 29.91C17.54 29.54 18.03 28.98 18.39 28.55C21.71 28.83 24.25 28.19 24.55 28.1C25.22 27.88 29 27.4 29.62 22.37C30.25 17.18 29.3 13.91 27.6 12.43ZM28.16 21.99C27.64 26.19 24.57 26.46 24 26.63C22.27 27.05 20.48 27.21 18.71 27.08C18.71 27.08 16.61 29.61 15.96 30.27C15.92 30.32 15.87 30.35 15.82 30.37C15.77 30.39 15.71 30.4 15.65 30.39C15.54 30.37 15.51 30.23 15.51 30.04C15.51 29.76 15.53 26.58 15.53 26.58C11.44 25.44 11.67 21.17 11.72 18.93C11.76 16.69 12.18 14.85 13.43 13.62C15.68 11.58 20.31 11.89 20.31 11.89C24.21 11.9 26.09 13.08 26.52 13.47C27.96 14.71 28.7 17.66 28.16 21.99L28.16 21.99Z" fill="#FFFFFF" fill-opacity="1.000000" fill-rule="nonzero"/>
		<path id="Viber" d="M22.3 19C22.23 19 22.16 18.98 22.12 18.93C22.07 18.89 22.04 18.82 22.03 18.76C21.99 17.87 21.57 17.43 20.72 17.39C20.65 17.39 20.59 17.35 20.54 17.3C20.5 17.25 20.47 17.18 20.47 17.12C20.48 17.05 20.51 16.98 20.56 16.94C20.61 16.89 20.68 16.87 20.75 16.87C21.86 16.93 22.5 17.57 22.56 18.73C22.56 18.8 22.53 18.87 22.49 18.92C22.44 18.97 22.38 19 22.31 19L22.3 19Z" fill="#FFFFFF" fill-opacity="1.000000" fill-rule="nonzero"/>
		<path id="Viber" d="M23.63 19.45C23.56 19.45 23.5 19.42 23.45 19.37C23.4 19.32 23.38 19.25 23.38 19.19C23.4 18.78 23.34 18.38 23.21 18C23.08 17.62 22.87 17.27 22.6 16.98C22.06 16.38 21.31 16.06 20.32 15.99C20.29 15.98 20.26 15.98 20.23 15.96C20.19 15.95 20.17 15.92 20.15 15.9C20.12 15.87 20.1 15.84 20.09 15.81C20.08 15.78 20.08 15.74 20.08 15.71C20.08 15.67 20.09 15.64 20.11 15.61C20.12 15.58 20.15 15.55 20.17 15.53C20.2 15.51 20.23 15.49 20.26 15.48C20.29 15.47 20.33 15.46 20.36 15.47C21.48 15.55 22.35 15.94 22.98 16.62C23.3 16.97 23.54 17.38 23.7 17.82C23.86 18.26 23.92 18.73 23.9 19.2C23.9 19.23 23.89 19.27 23.88 19.3C23.87 19.33 23.84 19.36 23.82 19.38C23.8 19.4 23.77 19.42 23.73 19.44C23.7 19.45 23.67 19.45 23.63 19.45Z" fill="#FFFFFF" fill-opacity="1.000000" fill-rule="nonzero"/>
		<path id="Viber" d="M25.01 19.99C24.94 19.99 24.87 19.96 24.82 19.91C24.77 19.86 24.75 19.8 24.75 19.73C24.73 18.15 24.26 16.9 23.34 16.01C22.88 15.56 22.34 15.21 21.75 14.98C21.15 14.74 20.51 14.63 19.87 14.64C19.81 14.63 19.75 14.6 19.7 14.56C19.66 14.51 19.63 14.44 19.63 14.38C19.63 14.31 19.66 14.25 19.7 14.2C19.75 14.15 19.81 14.12 19.87 14.12C20.58 14.1 21.28 14.23 21.94 14.49C22.6 14.74 23.2 15.13 23.7 15.62C24.73 16.62 25.25 18 25.27 19.72C25.27 19.75 25.26 19.78 25.25 19.82C25.24 19.85 25.22 19.88 25.19 19.9C25.17 19.93 25.14 19.94 25.11 19.96C25.08 19.97 25.04 19.98 25.01 19.98L25.01 19.99Z" fill="#FFFFFF" fill-opacity="1.000000" fill-rule="nonzero"/>
		<path id="Viber" d="M20.78 22.24C20.89 22.25 20.99 22.23 21.09 22.2C21.18 22.16 21.27 22.1 21.34 22.03L21.73 21.55C21.86 21.4 22.04 21.3 22.24 21.28C22.44 21.25 22.64 21.29 22.8 21.4C23.13 21.58 23.45 21.79 23.76 22.01C24.05 22.22 24.65 22.72 24.65 22.72C24.79 22.83 24.88 22.99 24.91 23.17C24.94 23.35 24.9 23.53 24.81 23.68C24.59 24.05 24.32 24.39 24 24.67C23.78 24.88 23.5 25.02 23.19 25.07C23.15 25.07 23.11 25.07 23.07 25.07C22.95 25.07 22.84 25.05 22.73 25.01L22.73 25C22.31 24.88 21.63 24.59 20.49 23.96C19.83 23.61 19.19 23.2 18.6 22.74C18.3 22.51 18.02 22.26 17.75 22L17.72 21.97L17.69 21.94L17.67 21.91L17.64 21.88C17.37 21.62 17.13 21.33 16.89 21.04C16.42 20.45 16 19.82 15.64 19.16C15.01 18.02 14.71 17.33 14.6 16.93L14.59 16.93C14.55 16.81 14.54 16.7 14.54 16.58C14.53 16.54 14.53 16.5 14.54 16.46C14.59 16.15 14.73 15.86 14.94 15.62C15.22 15.3 15.56 15.03 15.92 14.82C16.08 14.73 16.26 14.69 16.44 14.72C16.61 14.75 16.77 14.84 16.89 14.98C16.89 14.98 17.39 15.57 17.6 15.87C17.82 16.16 18.04 16.48 18.23 16.81C18.33 16.98 18.37 17.18 18.35 17.38C18.32 17.57 18.22 17.75 18.08 17.89L17.59 18.27C17.52 18.35 17.46 18.43 17.42 18.53C17.39 18.62 17.37 18.73 17.38 18.83C17.38 18.83 18.1 21.56 20.78 22.24Z" fill="#FFFFFF" fill-opacity="1.000000" fill-rule="nonzero"/>
	</g>
</svg>
