<svg width="50.000000" height="15.000000" viewBox="0 0 50 15" fill="none" xmlns="http://www.w3.org/2000/svg" xmlns:xlink="http://www.w3.org/1999/xlink">
	<desc>
			Created with Pixso.
	</desc>
	<defs/>
	<path id="Shape" d="M17.66 14.82L20.18 0.29L24.23 0.29L21.7 14.82L17.66 14.82Z" fill="#0E4595" fill-opacity="1.000000" fill-rule="nonzero"/>
	<path id="path13" d="M36.31 0.61C35.51 0.31 34.25 0 32.69 0C28.69 0 25.87 1.97 25.85 4.79C25.83 6.88 27.86 8.04 29.4 8.74C30.97 9.45 31.5 9.91 31.49 10.54C31.48 11.52 30.23 11.96 29.07 11.96C27.45 11.96 26.59 11.74 25.26 11.2L24.74 10.97L24.17 14.22C25.12 14.63 26.87 14.98 28.68 15C32.93 15 35.69 13.05 35.72 10.03C35.74 8.38 34.66 7.12 32.33 6.08C30.91 5.41 30.05 4.96 30.06 4.28C30.06 3.68 30.79 3.03 32.37 3.03C33.7 3.01 34.66 3.29 35.4 3.59L35.76 3.75L36.31 0.61Z" fill="#0E4595" fill-opacity="1.000000" fill-rule="nonzero"/>
	<path id="Path" d="M46.72 0.29L43.59 0.29C42.62 0.29 41.9 0.55 41.48 1.5L35.47 14.81L39.72 14.81C39.72 14.81 40.41 13.02 40.57 12.63C41.03 12.63 45.16 12.64 45.75 12.64C45.87 13.15 46.24 14.81 46.24 14.81L49.99 14.81L46.72 0.29ZM41.76 9.68C42.09 8.84 43.37 5.61 43.37 5.61C43.35 5.65 43.7 4.77 43.91 4.23L44.18 5.48C44.18 5.48 44.95 8.95 45.12 9.68L41.76 9.68L41.76 9.68Z" fill="#0E4595" fill-opacity="1.000000" fill-rule="nonzero"/>
	<path id="path16" d="M0.05 0.29L0 0.59C1.59 0.97 3.02 1.52 4.27 2.2L7.86 14.8L12.14 14.8L18.51 0.29L14.22 0.29L10.26 10.2L9.84 8.19C9.82 8.13 9.8 8.06 9.78 8L8.4 1.52C8.16 0.6 7.45 0.32 6.57 0.29L0.05 0.29Z" fill="#0E4595" fill-opacity="1.000000" fill-rule="nonzero"/>
</svg>
